<svg width="21" height="24" viewBox="0 0 21 24" fill="none" xmlns="http://www.w3.org/2000/svg">
<path d="M20.5585 16.8117C20.4678 16.703 20.3788 16.5943 20.2913 16.4894C19.0892 15.0431 18.3619 14.1702 18.3619 10.0758C18.3619 7.95608 17.8521 6.21681 16.8473 4.91236C16.1063 3.94869 15.1048 3.21765 13.7846 2.67739C13.7676 2.66799 13.7525 2.65566 13.7398 2.64098C13.265 1.05933 11.9656 0 10.5001 0C9.03465 0 7.73583 1.05933 7.26099 2.63935C7.24832 2.65349 7.23336 2.66543 7.21673 2.67467C4.13605 3.93619 2.63888 6.3565 2.63888 10.0742C2.63888 14.1702 1.91269 15.0431 0.709488 16.4878C0.622062 16.5927 0.532996 16.6992 0.442291 16.8101C0.207989 17.0911 0.0595399 17.4331 0.0145112 17.7955C-0.0305175 18.1578 0.0297595 18.5254 0.188209 18.8548C0.525346 19.5614 1.24388 20 2.06405 20H18.9422C19.7586 20 20.4722 19.5619 20.8104 18.8586C20.9696 18.5292 21.0304 18.1613 20.9858 17.7985C20.9411 17.4357 20.7928 17.0932 20.5585 16.8117Z" fill="#2B4C60"/>
<path d="M9.99972 24C10.815 23.9993 11.6149 23.7541 12.3145 23.2905C13.0142 22.827 13.5876 22.1622 13.9738 21.3669C13.992 21.3288 14.001 21.2861 13.9999 21.243C13.9988 21.1999 13.9877 21.1578 13.9676 21.1209C13.9475 21.084 13.9191 21.0534 13.8852 21.0323C13.8513 21.0111 13.813 21 13.7741 21H6.22647C6.18749 20.9998 6.14915 21.0109 6.11517 21.032C6.08119 21.0532 6.05274 21.0837 6.03257 21.1206C6.0124 21.1576 6.00121 21.1997 6.00009 21.2428C5.99897 21.286 6.00796 21.3287 6.02618 21.3669C6.41238 22.1621 6.98566 22.8268 7.68522 23.2904C8.38478 23.7539 9.18455 23.9992 9.99972 24Z" fill="#2B4C60"/>
</svg>
