<svg width="20" height="21" viewBox="0 0 20 21" fill="none" xmlns="http://www.w3.org/2000/svg">
<path d="M17.562 0.906008H2.438C2.11823 0.905614 1.80152 0.968206 1.50594 1.09021C1.21036 1.21222 0.941705 1.39125 0.715316 1.61708C0.488926 1.84291 0.309235 2.11112 0.186501 2.4064C0.0637668 2.70168 0.000393723 3.01824 0 3.33801L0 18.425C0.000393723 18.7448 0.0637668 19.0613 0.186501 19.3566C0.309235 19.6519 0.488926 19.9201 0.715316 20.1459C0.941705 20.3718 1.21036 20.5508 1.50594 20.6728C1.80152 20.7948 2.11823 20.8574 2.438 20.857H17.562C17.8818 20.8574 18.1985 20.7948 18.4941 20.6728C18.7896 20.5508 19.0583 20.3718 19.2847 20.1459C19.5111 19.9201 19.6908 19.6519 19.8135 19.3566C19.9362 19.0613 19.9996 18.7448 20 18.425V3.33801C19.9996 3.01824 19.9362 2.70168 19.8135 2.4064C19.6908 2.11112 19.5111 1.84291 19.2847 1.61708C19.0583 1.39125 18.7896 1.21222 18.4941 1.09021C18.1985 0.968206 17.8818 0.905614 17.562 0.906008ZM8.7 16.456C8.7 16.6046 8.67071 16.7517 8.61379 16.8889C8.55688 17.0261 8.47347 17.1508 8.36832 17.2557C8.26318 17.3607 8.13838 17.4439 8.00105 17.5006C7.86372 17.5572 7.71656 17.5863 7.568 17.586H3.732C3.58344 17.5863 3.43628 17.5572 3.29895 17.5006C3.16162 17.4439 3.03682 17.3607 2.93168 17.2557C2.82653 17.1508 2.74312 17.0261 2.68621 16.8889C2.62929 16.7517 2.6 16.6046 2.6 16.456V4.79901C2.6 4.17501 3.107 3.66901 3.732 3.66901H7.568C7.71656 3.66874 7.86372 3.69778 8.00105 3.75445C8.13838 3.81112 8.26318 3.89431 8.36832 3.99927C8.47347 4.10423 8.55688 4.22888 8.61379 4.36611C8.67071 4.50334 8.7 4.65045 8.7 4.79901V16.456ZM17.4 11.441C17.4 11.5896 17.3707 11.7367 17.3138 11.8739C17.2569 12.0111 17.1735 12.1358 17.0683 12.2407C16.9632 12.3457 16.8384 12.4289 16.701 12.4856C16.5637 12.5422 16.4166 12.5713 16.268 12.571H12.432C12.2834 12.5713 12.1363 12.5422 11.999 12.4856C11.8616 12.4289 11.7368 12.3457 11.6317 12.2407C11.5265 12.1358 11.4431 12.0111 11.3862 11.8739C11.3293 11.7367 11.3 11.5896 11.3 11.441V4.79901C11.3 4.17501 11.807 3.66901 12.432 3.66901H16.268C16.4166 3.66874 16.5637 3.69778 16.701 3.75445C16.8384 3.81112 16.9632 3.89431 17.0683 3.99927C17.1735 4.10423 17.2569 4.22888 17.3138 4.36611C17.3707 4.50334 17.4 4.65045 17.4 4.79901V11.441Z" fill="#2B4C60"/>
</svg>
