<svg width="35" height="31" viewBox="0 0 35 31" fill="none" xmlns="http://www.w3.org/2000/svg">
<path d="M17.5 0C16.2919 0 15.3125 0.925278 15.3125 2.06667V4.13333C15.3125 5.27472 16.2919 6.2 17.5 6.2C18.7081 6.2 19.6875 5.27472 19.6875 4.13333V2.06667C19.6875 0.925278 18.7081 0 17.5 0Z" fill="#78B4DF"/>
<path fill-rule="evenodd" clip-rule="evenodd" d="M4.375 4.13333H10.9375C10.9375 7.5575 13.8756 10.3333 17.5 10.3333C21.1244 10.3333 24.0625 7.5575 24.0625 4.13333H30.625C33.0412 4.13333 35 5.98389 35 8.26667V26.8667C35 29.1494 33.0412 31 30.625 31H4.375C1.95875 31 0 29.1494 0 26.8667V8.26667C0 5.98389 1.95875 4.13333 4.375 4.13333ZM9.84375 18.6C11.6559 18.6 13.125 17.2121 13.125 15.5C13.125 13.7879 11.6559 12.4 9.84375 12.4C8.03157 12.4 6.5625 13.7879 6.5625 15.5C6.5625 17.2121 8.03157 18.6 9.84375 18.6ZM15.2042 26.8667C15.2759 26.5328 15.3136 26.1872 15.3136 25.8333C15.3136 22.9799 12.8651 20.6667 9.84482 20.6667C6.82451 20.6667 4.37607 22.9799 4.37607 25.8333C4.37607 26.1872 4.41373 26.5328 4.48546 26.8667H15.2042ZM21.875 14.4667C20.6669 14.4667 19.6875 15.3919 19.6875 16.5333C19.6875 17.6747 20.6669 18.6 21.875 18.6H28.4375C29.6456 18.6 30.625 17.6747 30.625 16.5333C30.625 15.3919 29.6456 14.4667 28.4375 14.4667H21.875ZM19.6875 22.7333C19.6875 21.5919 20.6669 20.6667 21.875 20.6667H26.25C27.4581 20.6667 28.4375 21.5919 28.4375 22.7333C28.4375 23.8747 27.4581 24.8 26.25 24.8H21.875C20.6669 24.8 19.6875 23.8747 19.6875 22.7333Z" fill="#78B4DF"/>
</svg>
