<svg width="15" height="21" viewBox="0 0 15 21" fill="none" xmlns="http://www.w3.org/2000/svg">
<path fill-rule="evenodd" clip-rule="evenodd" d="M1.67336e-07 20.2559V3.38129C1.67336e-07 2.71826 0.263392 2.08239 0.732233 1.61356C1.20107 1.14473 1.83696 0.881348 2.5 0.881348L12.5 0.881348C13.163 0.881348 13.7989 1.14473 14.2678 1.61356C14.7366 2.08239 15 2.71826 15 3.38129V20.2559C15.0001 20.3644 14.9719 20.4711 14.9182 20.5654C14.8645 20.6598 14.7872 20.7385 14.6939 20.7939C14.6005 20.8493 14.4944 20.8794 14.3859 20.8813C14.2774 20.8831 14.1702 20.8567 14.075 20.8046L7.5 17.2172L0.925 20.8046C0.829787 20.8567 0.722649 20.8831 0.614131 20.8813C0.505614 20.8794 0.399459 20.8493 0.306115 20.7939C0.212771 20.7385 0.135456 20.6598 0.0817807 20.5654C0.0281057 20.4711 -7.92423e-05 20.3644 1.67336e-07 20.2559ZM11.0675 8.19868C11.1849 8.08132 11.2508 7.92216 11.2508 7.75619C11.2508 7.59022 11.1849 7.43106 11.0675 7.3137C10.9501 7.19634 10.791 7.13041 10.625 7.13041C10.459 7.13041 10.2999 7.19634 10.1825 7.3137L6.875 10.6224L5.4425 9.18866C5.38439 9.13055 5.3154 9.08445 5.23948 9.05301C5.16356 9.02156 5.08218 9.00537 5 9.00537C4.91782 9.00537 4.83644 9.02156 4.76052 9.05301C4.6846 9.08445 4.61561 9.13055 4.5575 9.18866C4.49939 9.24677 4.45329 9.31575 4.42185 9.39167C4.3904 9.4676 4.37421 9.54897 4.37421 9.63115C4.37421 9.71333 4.3904 9.7947 4.42185 9.87062C4.45329 9.94654 4.49939 10.0155 4.5575 10.0736L6.4325 11.9486C6.49056 12.0068 6.55953 12.053 6.63546 12.0845C6.71139 12.116 6.79279 12.1322 6.875 12.1322C6.95721 12.1322 7.03861 12.116 7.11454 12.0845C7.19047 12.053 7.25944 12.0068 7.3175 11.9486L11.0675 8.19868Z" fill="#2B4C60"/>
</svg>
