<svg width="15" height="15" viewBox="0 0 15 15" fill="none" xmlns="http://www.w3.org/2000/svg">
<path fill-rule="evenodd" clip-rule="evenodd" d="M0 7.25C0 3.24728 3.24728 0 7.25 0C11.2527 0 14.5 3.24728 14.5 7.25C14.5 11.2527 11.2527 14.5 7.25 14.5C3.24728 14.5 0 11.2527 0 7.25ZM7.25 1.11538C3.86329 1.11538 1.11538 3.86329 1.11538 7.25C1.11538 10.6367 3.86329 13.3846 7.25 13.3846C10.6367 13.3846 13.3846 10.6367 13.3846 7.25C13.3846 3.86329 10.6367 1.11538 7.25 1.11538Z" fill="#78B4DF"/>
<path fill-rule="evenodd" clip-rule="evenodd" d="M7.24995 1.48718C7.55796 1.48718 7.80765 1.73687 7.80765 2.04487V6.50641H10.5961C10.9041 6.50641 11.1538 6.7561 11.1538 7.06411C11.1538 7.37211 10.9041 7.6218 10.5961 7.6218H7.24995C6.94195 7.6218 6.69226 7.37211 6.69226 7.06411V2.04487C6.69226 1.73687 6.94195 1.48718 7.24995 1.48718Z" fill="#78B4DF"/>
</svg>
