<svg width="20" height="22" viewBox="0 0 20 22" fill="none" xmlns="http://www.w3.org/2000/svg">
<path d="M18.4172 5.26934C18.4455 5.25283 18.469 5.22919 18.4853 5.20077C18.5016 5.17236 18.5102 5.14016 18.5102 5.10739C18.5102 5.07462 18.5016 5.04243 18.4853 5.01401C18.469 4.98559 18.4455 4.96195 18.4172 4.94544L11.2575 0.78575C10.7994 0.520213 10.2793 0.380371 9.74975 0.380371C9.22025 0.380371 8.70013 0.520213 8.24202 0.78575L1.08374 4.94544C1.05543 4.96195 1.03195 4.98559 1.01563 5.01401C0.999311 5.04243 0.990723 5.07462 0.990723 5.10739C0.990723 5.14016 0.999311 5.17236 1.01563 5.20077C1.03195 5.22919 1.05543 5.25283 1.08374 5.26934L9.65624 10.3122C9.68507 10.3291 9.71793 10.3381 9.75139 10.3381C9.78486 10.3381 9.81771 10.3291 9.84655 10.3122L18.4172 5.26934Z" fill="#2B4C60"/>
<path d="M0.281254 6.5449C0.252661 6.52839 0.220216 6.51972 0.187199 6.51978C0.154183 6.51983 0.121765 6.5286 0.0932257 6.5452C0.064686 6.5618 0.0410359 6.58564 0.0246667 6.61432C0.00829749 6.64299 -0.000210224 6.67548 3.94589e-06 6.70849V14.8596C0.00071162 15.2524 0.104239 15.6382 0.300291 15.9785C0.496343 16.3189 0.778087 16.602 1.1175 16.7997L8.71875 21.3574C8.74724 21.3738 8.77956 21.3825 8.81246 21.3825C8.84535 21.3825 8.87767 21.3739 8.90617 21.3574C8.93467 21.341 8.95834 21.3174 8.97481 21.2889C8.99128 21.2604 8.99997 21.2281 9 21.1952V11.7382C8.99997 11.7053 8.99129 11.673 8.97484 11.6445C8.95838 11.6161 8.93473 11.5924 8.90625 11.576L0.281254 6.5449Z" fill="#2B4C60"/>
<path d="M10.5 11.7708V21.1927C10.5 21.2256 10.5087 21.2579 10.5252 21.2864C10.5417 21.3149 10.5653 21.3385 10.5938 21.3549C10.6223 21.3714 10.6547 21.38 10.6875 21.38C10.7204 21.38 10.7528 21.3713 10.7812 21.3549L18.382 16.7972C18.7212 16.5998 19.0028 16.3171 19.1989 15.9771C19.395 15.6372 19.4988 15.2519 19.5 14.8594V6.70832C19.4999 6.67547 19.4911 6.64322 19.4746 6.61481C19.4581 6.58639 19.4344 6.56282 19.406 6.54644C19.3775 6.53006 19.3452 6.52146 19.3123 6.52148C19.2795 6.52151 19.2472 6.53018 19.2188 6.54661L10.5938 11.6091C10.5653 11.6255 10.5417 11.6491 10.5253 11.6774C10.5088 11.7058 10.5001 11.738 10.5 11.7708Z" fill="#2B4C60"/>
</svg>
