<svg width="21" height="16" viewBox="0 0 21 16" fill="none" xmlns="http://www.w3.org/2000/svg">
<path d="M9.1875 1.44097C7.79993 0.762197 6.24115 0.381348 4.59375 0.381348C2.94635 0.381348 1.38757 0.762197 0 1.44097V14.6166C1.38757 13.9378 2.94635 13.5569 4.59375 13.5569C6.78379 13.5569 8.81723 14.23 10.5 15.3813C12.1828 14.23 14.2162 13.5569 16.4062 13.5569C18.0536 13.5569 19.6124 13.9378 21 14.6166V1.44097C19.6124 0.762197 18.0536 0.381348 16.4062 0.381348C14.7589 0.381348 13.2001 0.762197 11.8125 1.44097V10.9218C11.8125 11.6495 11.2249 12.2394 10.5 12.2394C9.77513 12.2394 9.1875 11.6495 9.1875 10.9218V1.44097Z" fill="#2B4C60"/>
</svg>
