<svg width="15" height="15" viewBox="0 0 15 15" fill="none" xmlns="http://www.w3.org/2000/svg">
<path d="M9.81732 15.0019C9.5662 15.0019 9.31507 14.945 9.08739 14.8278C9.07064 14.8178 9.0539 14.8111 9.03716 14.7977L5.32051 12.3735C5.17653 12.3065 5.00911 12.3099 4.86513 12.3802L1.6139 14.4997C1.6005 14.5097 1.58711 14.5164 1.57372 14.5231C1.41969 14.6035 1.24558 14.647 1.07147 14.647C0.48216 14.647 0 14.1648 0 13.5755V3.67114C0 3.28273 0.207597 2.93116 0.542431 2.7403L4.30596 0.215658C4.3227 0.205613 4.3361 0.195568 4.35284 0.185523C4.81156 -0.055557 5.36069 -0.0622537 5.82276 0.168782C5.8395 0.178827 5.85624 0.185523 5.87298 0.195568L9.67669 2.63316C9.82067 2.69678 9.98474 2.69343 10.1254 2.62646L13.3867 0.503615C13.4 0.49357 13.4134 0.486874 13.4268 0.480177C13.5809 0.399817 13.755 0.356288 13.9291 0.356288C14.2137 0.356288 14.4849 0.466784 14.6858 0.671032C14.8867 0.871932 15.0005 1.14315 15.0005 1.42776V11.3288C15.0005 11.7205 14.7896 12.0755 14.4514 12.263L10.6042 14.7943C10.5874 14.8044 10.574 14.8144 10.5573 14.8211C10.3263 14.9416 10.0718 15.0019 9.81732 15.0019ZM9.59633 13.8836C9.73696 13.9472 9.90438 13.9472 10.045 13.8802L13.8822 11.3556C13.8989 11.3455 13.9123 11.3355 13.9291 11.3288V1.4311L10.6879 3.54056C10.6745 3.5506 10.6611 3.5573 10.6444 3.56399C10.189 3.80507 9.63986 3.81177 9.17444 3.58074C9.1577 3.57069 9.14096 3.564 9.12422 3.55395L5.32051 1.11971C5.17653 1.05609 5.01246 1.05944 4.87183 1.12641L1.11834 3.64436C1.1016 3.6544 1.08821 3.66444 1.07147 3.67449V13.5755L4.30596 11.4661C4.31935 11.456 4.33275 11.4493 4.34614 11.4426C4.80821 11.1982 5.36069 11.1949 5.82611 11.4292C5.84285 11.4393 5.85959 11.446 5.87633 11.4594L9.59633 13.8836Z" fill="#78B4DF"/>
<path d="M9.9111 15.0018C9.61645 15.0018 9.37537 14.7607 9.37537 14.4661V3.21567C9.37537 2.92101 9.61645 2.67993 9.9111 2.67993C10.2058 2.67993 10.4468 2.92101 10.4468 3.21567V14.4661C10.4468 14.7607 10.2058 15.0018 9.9111 15.0018Z" fill="#78B4DF"/>
<path d="M5.08944 12.3233C4.79479 12.3233 4.55371 12.0823 4.55371 11.7876V0.537199C4.55371 0.242545 4.79479 0.00146484 5.08944 0.00146484C5.3841 0.00146484 5.62518 0.242545 5.62518 0.537199V11.7876C5.62518 12.0823 5.3841 12.3233 5.08944 12.3233Z" fill="#78B4DF"/>
</svg>
