<svg width="38" height="38" viewBox="0 0 38 38" fill="none" xmlns="http://www.w3.org/2000/svg">
<path fill-rule="evenodd" clip-rule="evenodd" d="M14.25 4.75C9.00329 4.75 4.75 9.00329 4.75 14.25C4.75 19.4967 9.00329 23.75 14.25 23.75C19.4967 23.75 23.75 19.4967 23.75 14.25C23.75 9.00329 19.4967 4.75 14.25 4.75ZM0 14.25C0 6.37994 6.37994 0 14.25 0C22.1201 0 28.5 6.37994 28.5 14.25C28.5 17.3276 27.5244 20.1773 25.8655 22.5068L37.3044 33.9456C38.2319 34.8731 38.2319 36.3769 37.3044 37.3044C36.3769 38.2319 34.8731 38.2319 33.9456 37.3044L22.5068 25.8655C20.1773 27.5244 17.3276 28.5 14.25 28.5C6.37994 28.5 0 22.1201 0 14.25Z" fill="#78B4DF"/>
</svg>
