<svg width="11" height="16" viewBox="0 0 11 16" fill="none" xmlns="http://www.w3.org/2000/svg">
<path fill-rule="evenodd" clip-rule="evenodd" d="M0 5.46454C0 2.42202 2.48951 0 5.5 0C8.51049 0 11 2.42202 11 5.46454C11 7.17978 10.1074 9.30191 9.12967 11.1362C8.13725 12.9979 6.99434 14.6752 6.38143 15.5352C6.28029 15.6789 6.14805 15.7958 5.99537 15.8766C5.84192 15.9577 5.67218 16 5.5 16C5.32782 16 5.15808 15.9577 5.00463 15.8766C4.85193 15.7958 4.71968 15.6789 4.61854 15.5352C4.00564 14.6748 2.86273 12.9969 1.87032 11.1349C0.892605 9.30055 0 7.17856 0 5.46454ZM5.5 1.14291C3.04486 1.14291 1.1 3.10609 1.1 5.46454C1.1 6.8578 1.85739 8.75153 2.83261 10.5812C3.79051 12.3785 4.90002 14.009 5.5 14.8515C6.09996 14.0094 7.20949 12.3794 8.1674 10.5824C9.14257 8.75303 9.9 6.85908 9.9 5.46454C9.9 3.10609 7.95514 1.14291 5.5 1.14291Z" fill="#78B4DF"/>
<path fill-rule="evenodd" clip-rule="evenodd" d="M5.5 4.25C4.80964 4.25 4.25 4.80964 4.25 5.5C4.25 6.19036 4.80964 6.75 5.5 6.75C6.19036 6.75 6.75 6.19036 6.75 5.5C6.75 4.80964 6.19036 4.25 5.5 4.25ZM3 5.5C3 4.11929 4.11929 3 5.5 3C6.88071 3 8 4.11929 8 5.5C8 6.88071 6.88071 8 5.5 8C4.11929 8 3 6.88071 3 5.5Z" fill="#78B4DF"/>
</svg>
