<svg width="39" height="37" viewBox="0 0 39 37" fill="none" xmlns="http://www.w3.org/2000/svg">
<path d="M14.5951 31.6559C14.1586 32.2189 13.6775 32.7496 13.156 33.2433C10.6158 35.6511 6.78388 36.379 1.66238 35.4229C0.654547 30.564 1.4218 26.9286 3.95979 24.5187C4.49513 24.0108 5.05648 23.5564 5.63301 23.1554C3.85553 22.3317 1.95601 21.7701 0 21.4899C0.630113 19.6151 1.72576 17.9113 3.19471 16.522C5.40163 14.422 8.33448 13.1498 11.4524 12.9401C12.7612 10.7924 14.3646 8.81906 16.2206 7.07162C23.4163 0.244944 32.6775 -2.03336 36.9104 1.98246C41.1433 5.99827 38.7418 14.7866 31.5461 21.6112C29.7042 23.3721 27.6242 24.8932 25.3604 26.1349C25.1394 29.0929 23.7984 31.8754 21.5849 33.9691C20.1212 35.3636 18.3252 36.4032 16.3485 37C16.0531 35.1443 15.4633 33.3422 14.5951 31.6559ZM27.712 10.7091C28.1187 11.0949 28.6703 11.3117 29.2455 11.3117C29.8206 11.3117 30.3722 11.0949 30.7789 10.7091C31.1856 10.3233 31.414 9.79995 31.414 9.2543C31.414 8.70865 31.1856 8.18535 30.7789 7.79952C30.3722 7.41369 29.8206 7.19693 29.2455 7.19693C28.6703 7.19693 28.1187 7.41369 27.712 7.79952C27.3054 8.18535 27.0769 8.70865 27.0769 9.2543C27.0769 9.79995 27.3054 10.3233 27.712 10.7091ZM10.8542 26.7024C10.618 26.4762 10.2343 26.1328 9.7055 25.6681C8.7692 25.9766 7.6595 26.8484 6.64083 27.7922C5.83674 28.5386 5.56365 29.7929 5.55715 31.7402C7.60748 31.7319 9.06829 31.2878 9.7055 30.6997C10.7263 29.7559 11.6345 28.8142 11.9596 27.9238C11.7168 27.5249 11.2097 27.0396 10.8542 26.7024Z" fill="#78B4DF"/>
</svg>
